<mxfile host="app.diagrams.net" modified="2023-11-08T19:20:23.859Z" agent="Mozilla/5.0 (Windows NT 10.0; Win64; x64) AppleWebKit/537.36 (KHTML, like Gecko) Chrome/119.0.0.0 Safari/537.36" etag="0LNuyWFBngxi1Pvxwsm6" version="22.0.8" type="device">
  <diagram name="Page-1" id="xSczwSZruR7x29vF_YXG">
    <mxGraphModel dx="1235" dy="675" grid="1" gridSize="10" guides="1" tooltips="1" connect="1" arrows="1" fold="1" page="1" pageScale="1" pageWidth="3300" pageHeight="4681" math="0" shadow="0">
      <root>
        <mxCell id="0" />
        <mxCell id="1" parent="0" />
        <mxCell id="H_6RUFQsW8vP9-qgdKDj-1" value="Account" style="whiteSpace=wrap;html=1;align=center;" vertex="1" parent="1">
          <mxGeometry x="1490" y="1210" width="100" height="40" as="geometry" />
        </mxCell>
        <mxCell id="H_6RUFQsW8vP9-qgdKDj-2" value="username" style="ellipse;whiteSpace=wrap;html=1;align=center;" vertex="1" parent="1">
          <mxGeometry x="1380" y="1150" width="100" height="40" as="geometry" />
        </mxCell>
        <mxCell id="H_6RUFQsW8vP9-qgdKDj-3" value="id" style="ellipse;whiteSpace=wrap;html=1;align=center;fontStyle=4;" vertex="1" parent="1">
          <mxGeometry x="1300" y="1200" width="100" height="40" as="geometry" />
        </mxCell>
        <mxCell id="H_6RUFQsW8vP9-qgdKDj-4" value="password" style="ellipse;whiteSpace=wrap;html=1;align=center;" vertex="1" parent="1">
          <mxGeometry x="1530" y="1140" width="100" height="40" as="geometry" />
        </mxCell>
        <mxCell id="H_6RUFQsW8vP9-qgdKDj-5" value="email" style="ellipse;whiteSpace=wrap;html=1;align=center;" vertex="1" parent="1">
          <mxGeometry x="1640" y="1180" width="100" height="40" as="geometry" />
        </mxCell>
        <mxCell id="H_6RUFQsW8vP9-qgdKDj-6" value="" style="endArrow=none;html=1;rounded=0;entryX=0;entryY=0.5;entryDx=0;entryDy=0;exitX=1;exitY=0.5;exitDx=0;exitDy=0;" edge="1" parent="1" source="H_6RUFQsW8vP9-qgdKDj-1" target="H_6RUFQsW8vP9-qgdKDj-5">
          <mxGeometry relative="1" as="geometry">
            <mxPoint x="1460" y="1230" as="sourcePoint" />
            <mxPoint x="1620" y="1230" as="targetPoint" />
          </mxGeometry>
        </mxCell>
        <mxCell id="H_6RUFQsW8vP9-qgdKDj-7" value="" style="endArrow=none;html=1;rounded=0;entryX=0.75;entryY=0;entryDx=0;entryDy=0;exitX=0.5;exitY=1;exitDx=0;exitDy=0;" edge="1" parent="1" source="H_6RUFQsW8vP9-qgdKDj-4" target="H_6RUFQsW8vP9-qgdKDj-1">
          <mxGeometry relative="1" as="geometry">
            <mxPoint x="1460" y="1230" as="sourcePoint" />
            <mxPoint x="1620" y="1230" as="targetPoint" />
          </mxGeometry>
        </mxCell>
        <mxCell id="H_6RUFQsW8vP9-qgdKDj-9" value="" style="endArrow=none;html=1;rounded=0;exitX=0.718;exitY=0.981;exitDx=0;exitDy=0;exitPerimeter=0;entryX=0.25;entryY=0;entryDx=0;entryDy=0;" edge="1" parent="1" source="H_6RUFQsW8vP9-qgdKDj-2" target="H_6RUFQsW8vP9-qgdKDj-1">
          <mxGeometry relative="1" as="geometry">
            <mxPoint x="1460" y="1230" as="sourcePoint" />
            <mxPoint x="1620" y="1230" as="targetPoint" />
          </mxGeometry>
        </mxCell>
        <mxCell id="H_6RUFQsW8vP9-qgdKDj-10" value="" style="endArrow=none;html=1;rounded=0;exitX=1;exitY=0.5;exitDx=0;exitDy=0;entryX=0;entryY=0.5;entryDx=0;entryDy=0;" edge="1" parent="1" source="H_6RUFQsW8vP9-qgdKDj-3" target="H_6RUFQsW8vP9-qgdKDj-1">
          <mxGeometry relative="1" as="geometry">
            <mxPoint x="1460" y="1230" as="sourcePoint" />
            <mxPoint x="1620" y="1230" as="targetPoint" />
          </mxGeometry>
        </mxCell>
        <mxCell id="H_6RUFQsW8vP9-qgdKDj-11" value="Job Seekers" style="whiteSpace=wrap;html=1;align=center;" vertex="1" parent="1">
          <mxGeometry x="1030" y="1210" width="100" height="40" as="geometry" />
        </mxCell>
      </root>
    </mxGraphModel>
  </diagram>
</mxfile>
